<svg width="397.99999999999994" height="137" xmlns="http://www.w3.org/2000/svg" preserveAspectRatio="xMidYMid meet" data-background-color="#2c2c2c">
 <g>
  <title>Layer 1</title>
  <g transform="matrix(1, 0, 0, 1, 122.24, 133.543)" id="tight-bounds">
   <svg y="-132" x="-120" id="svg_34" width="395.52" height="132.91403" viewBox="0 0 395.5199999999999 132.91402671594747">
    <svg id="svg_35" width="395.52" height="132.91403" viewBox="0 0 677.1350192434995 227.55041979680954">
     <g id="svg_13" transform="matrix(1,0,0,1,281.61501924349955,0)">
      <svg id="svg_36" width="395.52" height="227.55042" viewBox="0 0 395.52 227.55041979680954">
       <svg id="svg_37" width="395.52" height="227.55042" viewBox="0 0 395.52 227.55041979680954">
        <svg id="svg_38" width="395.52" height="155.64342" viewBox="0 0 395.52 155.64342090553382">
         <svg id="svg_39" data-palette-color="#ffffff" height="155.64342" viewBox="2.5 -35 89.44000244140625 35.20000076293945" width="395.52">
          <path id="svg_19" data-fill-palette-color="primary" class="undefined-text-0" fill="#ffffff" d="m5.8,-32.25l-3.3,0l0,-2.75l10.1,0l0,2.75l-3.4,0l0,29.5l3.4,0l0,2.75l-10.1,0l0,-2.75l3.3,0l0,-29.5zm25.85,32.25l-10.05,0l0,-2.75l3.25,0l0,-29.25l-7.35,0l-0.55,4.6l-2.45,-0.4l0.6,-7.2l22.8,0l0.65,7.2l-2.5,0.4l-0.6,-4.6l-7.45,0l0,29.25l3.65,0l0,2.75zm12.94,-32.25l-3.04,0l0,-2.75l21.25,0l-0.05,0.3l0.65,6.9l-2.5,0.4l-0.6,-4.85l-12.3,0l0,13.4l10.9,0l0,-3.15l2.75,0l0,8.6l-2.75,0l0,-2.7l-10.9,0l0,13.35l13.65,0l0.75,-6.25l2.44,0.25l-0.75,8.75l-22.54,0l0,-2.75l3.04,0l0,-29.5zm38.15,-0.05l0,0q-5.65,0 -8.95,4.2q-3.3,4.2 -3.3,12.1l0,0q0,3.4 0.7,5.95q0.7,2.55 1.73,3.95q1.02,1.4 2.52,2.2l0,0q2.4,1.35 5.6,1.35l0,0q4.95,0 9.9,-1.1l0,0l0.6,2.6q-0.85,0.3 -4.52,0.77q-3.68,0.48 -5.98,0.48q-2.3,0 -4,-0.33q-1.7,-0.32 -3.6,-1.37q-1.9,-1.05 -3.22,-2.78q-1.33,-1.72 -2.23,-4.72q-0.9,-3 -0.9,-7l0,0q0,-8.85 4.05,-13.8l0,0q4.25,-5.2 11.6,-5.2l0,0q2.25,0 4.88,0.42q2.62,0.43 3.72,0.83l0,0l0.6,7.2l-2.45,0.35l-0.7,-5.4q-3.2,-0.7 -6.05,-0.7z"/>
         </svg>
        </svg>
        <g id="svg_22" transform="matrix(1,0,0,1,0,192.38709713922862)">
         <svg id="svg_40" width="232.20979" height="35.16332" viewBox="0 0 232.209792 35.16332265758092">
          <svg id="svg_41" data-palette-color="#b3b3b3" height="35.16332" viewBox="1.5499999523162842 -39.349998474121094 264.1300048828125 40" width="232.20979">
           <path id="svg_23" data-fill-palette-color="secondary" class="undefined-text-1" fill="#b3b3b3" d="m27.45,-9.75q0,3.1 -1.57,5.45q-1.58,2.35 -4.55,3.65q-2.98,1.3 -7.08,1.3l0,0q-8,0 -12.7,-4.6l0,0l3.2,-3.55q3.9,3.6 9.5,3.6l0,0q3.1,0 5.13,-1.45q2.02,-1.45 2.02,-4.1l0,0q0,-1.55 -0.62,-2.6q-0.63,-1.05 -2.13,-1.88q-1.5,-0.82 -4.3,-1.67l0,0q-5.75,-1.7 -8.45,-4.05q-2.7,-2.35 -2.7,-6.2l0,0q0,-2.75 1.53,-4.88q1.52,-2.12 4.22,-3.29q2.7,-1.18 6.1,-1.18l0,0q6.95,0 11.55,4.15l0,0l-3.05,3.45q-3.55,-3.05 -8.15,-3.05l0,0q-2.8,0 -4.52,1.15q-1.73,1.15 -1.73,3.3l0,0q0,1.35 0.73,2.3q0.72,0.95 2.45,1.72q1.72,0.78 4.87,1.73l0,0q5,1.5 7.63,3.85q2.62,2.35 2.62,6.85l0,0zm17.6,-17.35q5.7,0 8.8,3.72q3.1,3.73 3.1,10.13l0,0q0,6.4 -3.15,10.15q-3.15,3.75 -8.8,3.75l0,0q-5.7,0 -8.83,-3.68q-3.12,-3.67 -3.12,-10.17l0,0q0,-6.3 3.17,-10.1q3.18,-3.8 8.83,-3.8l0,0zm0,4.35q-3.05,0 -4.58,2.35q-1.52,2.35 -1.52,7.2l0,0q0,4.9 1.5,7.22q1.5,2.33 4.55,2.33l0,0q3.05,0 4.55,-2.35q1.5,-2.35 1.5,-7.25l0,0q0,-4.85 -1.5,-7.18q-1.5,-2.32 -4.5,-2.32l0,0zm31,-14.25l0,29.8q0,3.35 4,3.35l0,0q2,0 4.2,-0.9l0,0l1.4,3.9q-2.75,1.5 -6.81,1.5l0,0q-3.94,0 -6.17,-2.23q-2.22,-2.22 -2.22,-6.12l0,0l0,-25.2l-7.95,0l0,-4.1l13.55,0zm23.99,10.6l0,18.45q0,2.3 0.93,3.32q0.92,1.03 2.82,1.03l0,0q1.8,0 3.48,-1.05q1.67,-1.05 2.67,-2.65l0,0l0,-19.1l5.6,0l0,26.4l-4.85,0l-0.35,-3.4q-1.4,1.95 -3.65,3q-2.25,1.05 -4.65,1.05l0,0q-3.8,0 -5.7,-2.05q-1.9,-2.05 -1.9,-5.85l0,0l0,-19.15l5.6,0zm46.45,25q-1.5,0.95 -3.5,1.5q-2,0.55 -4.2,0.55l0,0q-4.5,0 -6.95,-2.33q-2.45,-2.32 -2.45,-6.32l0,0l0,-14.3l-5.85,0l0,-4.1l5.85,0l0,-5.9l5.6,-0.65l0,6.55l8.95,0l-0.65,4.1l-8.3,0l0,14.25q0,2.15 1.1,3.17q1.1,1.03 3.5,1.03l0,0q2.65,0 4.9,-1.25l0,0l2,3.7zm18.5,-37.95q1.6,0 2.62,1.02q1.03,1.03 1.03,2.53l0,0q0,1.5 -1.03,2.5q-1.02,1 -2.62,1l0,0q-1.65,0 -2.65,-1q-1,-1 -1,-2.5l0,0q0,-1.55 1.02,-2.55q1.03,-1 2.63,-1l0,0zm3.85,12.95l0,22.3l7.2,0l0,4.1l-20.65,0l0,-4.1l7.85,0l0,-18.2l-7.6,0l0,-4.1l13.2,0zm26.2,-0.7q5.7,0 8.8,3.72q3.1,3.73 3.1,10.13l0,0q0,6.4 -3.15,10.15q-3.15,3.75 -8.8,3.75l0,0q-5.7,0 -8.83,-3.68q-3.12,-3.67 -3.12,-10.17l0,0q0,-6.3 3.17,-10.1q3.18,-3.8 8.83,-3.8l0,0zm0,4.35q-3.05,0 -4.58,2.35q-1.52,2.35 -1.52,7.2l0,0q0,4.9 1.5,7.22q1.5,2.33 4.55,2.33l0,0q3.05,0 4.55,-2.35q1.5,-2.35 1.5,-7.25l0,0q0,-4.85 -1.5,-7.18q-1.5,-2.32 -4.5,-2.32l0,0zm19.39,22.75l0,-26.4l4.85,0l0.4,3.45q1.65,-2 3.88,-3.08q2.22,-1.07 4.67,-1.07l0,0q3.65,0 5.5,2.05q1.85,2.05 1.85,5.8l0,0l0,19.25l-5.6,0l0,-16.45q0,-2.45 -0.27,-3.78q-0.28,-1.32 -1.08,-1.95q-0.8,-0.62 -2.4,-0.62l0,0q-1.8,0 -3.42,1.1q-1.63,1.1 -2.78,2.75l0,0l0,18.95l-5.6,0zm39.6,-3.6q2.65,0 4.18,-0.95q1.52,-0.95 1.52,-2.6l0,0q0,-1.15 -0.45,-1.88q-0.45,-0.72 -1.8,-1.35q-1.35,-0.62 -4.05,-1.32l0,0q-4.35,-1.1 -6.52,-2.83q-2.18,-1.72 -2.18,-4.97l0,0q0,-3.45 2.85,-5.53q2.85,-2.07 7.7,-2.07l0,0q5.85,0 10.05,3.05l0,0l-2.4,3.55q-3.55,-2.35 -7.5,-2.35l0,0q-5,0 -5,2.9l0,0q0,1 0.58,1.65q0.57,0.65 1.97,1.23q1.4,0.57 4.15,1.32l0,0q4.3,1.2 6.43,2.95q2.12,1.75 2.12,5.25l0,0q0,4.05 -3.35,6.12q-3.35,2.08 -8.3,2.08l0,0q-6.55,0 -10.85,-3.7l0,0l2.95,-3.4q1.65,1.3 3.68,2.07q2.02,0.78 4.22,0.78l0,0z"/>
          </svg>
         </svg>
        </g>
       </svg>
      </svg>
     </g>
     <g id="svg_27" transform="matrix(1,0,0,1,0,9.711376510349794)">
      <svg id="svg_42" width="208.12767" height="208.12767" viewBox="0 0 208.12766677610995 208.12766677610995">
       <svg id="svg_43"/>
       <svg id="svg_44" width="208.12767" height="208.12767" viewBox="0 0 208.12766677610995 208.12766677610995">
        <g id="svg_45">
         <path id="svg_46" stroke="transparent" fill="#ffffff" data-fill-palette-color="accent" d="m0,104.064c0,-57.473 46.591,-104.064 104.064,-104.064c57.473,0 104.064,46.591 104.064,104.064c0,57.473 -46.591,104.064 -104.064,104.064c-57.473,0 -104.064,-46.591 -104.064,-104.064zm104.064,90.028c49.721,0 90.028,-40.307 90.028,-90.028c0,-49.721 -40.307,-90.028 -90.028,-90.028c-49.721,0 -90.028,40.307 -90.028,90.028c0,49.721 40.307,90.028 90.028,90.028z"/>
        </g>
        <g id="svg_31" transform="matrix(1,0,0,1,61.46673156540365,61.46673562775001)">
         <svg id="svg_47" width="85.1942" height="85.1942" viewBox="0 0 85.19420364530265 85.19419552060992">
          <svg id="svg_32" data-fill-palette-color="accent" class="icon-a-0" width="85.1942" height="85.1942" y="0" x="0" viewBox="1.9999253749847412 1.9999253749847412 20.000146865844727 20.000144958496094" data-name="Layer 1" xmlns="http://www.w3.org/2000/svg">
           <path id="svg_48" data-fill-palette-color="accent" fill="#ffffff" d="m22,5.4a3.41,3.41 0 0 0 -3.4,-3.4l-5.36,0a2.24,2.24 0 0 0 -1.3,0.42a2.32,2.32 0 0 0 -1.35,-0.42l-5.19,0a3.41,3.41 0 0 0 -3.4,3.4l0,5.36a2.24,2.24 0 0 0 0.42,1.3a2.32,2.32 0 0 0 -0.42,1.35l0,5.19a3.41,3.41 0 0 0 3.4,3.4l5.36,0a2.24,2.24 0 0 0 1.3,-0.42a2.32,2.32 0 0 0 1.35,0.42l5.19,0a3.41,3.41 0 0 0 3.4,-3.4l0,-5.36a2.24,2.24 0 0 0 -0.42,-1.3a2.32,2.32 0 0 0 0.42,-1.35l0,-5.19zm-8.76,-1.4l5.36,0a1.4,1.4 0 0 1 1.4,1.4l0,5.19a0.41,0.41 0 0 1 -0.41,0.41a2.44,2.44 0 0 0 -2.19,1.43a1,1 0 0 1 -0.76,0.55a1,1 0 0 1 -0.76,-0.55a2.44,2.44 0 0 0 -2.19,-1.43l-0.28,0a0.41,0.41 0 0 1 -0.41,-0.41a0.48,0.48 0 0 1 0.29,-0.39a3,3 0 0 0 1.71,-2.7s0,-0.09 0,-0.14s0,-0.09 0,-0.14a3,3 0 0 0 -1.86,-2.77a0.23,0.23 0 0 1 -0.14,-0.21a0.24,0.24 0 0 1 0.24,-0.24zm-9.24,1.4a1.4,1.4 0 0 1 1.4,-1.4l5.19,0a0.41,0.41 0 0 1 0.41,0.41a2.44,2.44 0 0 0 1.43,2.19a1,1 0 0 1 0.55,0.76a1,1 0 0 1 -0.55,0.76a2.44,2.44 0 0 0 -1.43,2.19l0,0.28a0.41,0.41 0 0 1 -0.41,0.41a0.48,0.48 0 0 1 -0.39,-0.29a3,3 0 0 0 -2.7,-1.71l-0.28,0a3,3 0 0 0 -2.77,1.86a0.24,0.24 0 0 1 -0.45,-0.1l0,-5.36zm6.76,14.6l-5.36,0a1.4,1.4 0 0 1 -1.4,-1.4l0,-5.19a0.41,0.41 0 0 1 0.41,-0.41a2.44,2.44 0 0 0 2.19,-1.43a1,1 0 0 1 0.76,-0.57a1,1 0 0 1 0.76,0.55a2.44,2.44 0 0 0 2.19,1.45l0.28,0a0.41,0.41 0 0 1 0.41,0.41a0.48,0.48 0 0 1 -0.29,0.39a3,3 0 0 0 -1.71,2.7c0,0.05 0,0.09 0,0.14s0,0.09 0,0.14a3,3 0 0 0 1.86,2.77a0.23,0.23 0 0 1 0.14,0.21a0.24,0.24 0 0 1 -0.24,0.24zm9.24,-1.4a1.4,1.4 0 0 1 -1.4,1.4l-5.19,0a0.41,0.41 0 0 1 -0.41,-0.41a2.44,2.44 0 0 0 -1.43,-2.19a1,1 0 0 1 -0.55,-0.76a1,1 0 0 1 0.55,-0.76a2.44,2.44 0 0 0 1.43,-2.19l0,-0.28a0.41,0.41 0 0 1 0.41,-0.41a0.48,0.48 0 0 1 0.39,0.29a3,3 0 0 0 2.7,1.71l0.28,0a3,3 0 0 0 2.77,-1.86a0.24,0.24 0 0 1 0.45,0.1l0,5.36z"/>
          </svg>
         </svg>
        </g>
       </svg>
      </svg>
     </g>
    </svg>

   </svg>
   <rect x="-120" y="-132" id="svg_49" visibility="hidden" fill="none" height="132.91403" width="395.52"/>
  </g>
 </g>
</svg>