<?xml version="1.0" encoding="iso-8859-1"?>
<!-- Uploaded to: SVG Repo, www.svgrepo.com, Generator: SVG Repo Mixer Tools -->
<svg fill="#000000" height="800px" width="800px" version="1.1" id="Layer_1" xmlns="http://www.w3.org/2000/svg" xmlns:xlink="http://www.w3.org/1999/xlink" 
	 viewBox="0 0 482 482" xml:space="preserve">
<g>
	<path d="M482,241c0-18.274-12.254-33.731-28.974-38.61c1.155-3.744,1.779-7.718,1.779-11.835c0-22.179-18.044-40.223-40.223-40.223
		h-98.574c0.859-3.266,1.32-6.691,1.32-10.223c0-22.179-18.044-40.223-40.223-40.223h-65.407c-30.685,0-61.674,9.398-81.608,16.942
		v-4.635H61.056V90.28H0v30h31.056v241.44H0v30h61.056v-21.915h69.035v-4.635c19.934,7.544,50.923,16.942,81.608,16.942h173.11
		c22.179,0,40.223-18.044,40.223-40.223c0-3.892-0.567-7.653-1.603-11.215c17.935-4.043,31.376-20.091,31.376-39.23
		c0-4.118-0.625-8.092-1.779-11.835C469.746,274.731,482,259.274,482,241z M211.699,129.886h65.407
		c5.637,0,10.223,4.586,10.223,10.223c0,5.637-4.586,10.223-10.223,10.223h-78.147v15c0,41.162-29.748,75.484-68.868,82.657v-98.818
		C145.39,142.641,179.406,129.886,211.699,129.886z M100.091,339.806H61.056V142.194h39.035V339.806z M414.583,301.668H275.487v30
		H384.81c5.637,0,10.223,4.586,10.223,10.223c0,5.637-4.586,10.223-10.223,10.223h-173.11c-32.161,0-66.27-12.768-81.608-19.298
		v-54.439c50.83-6.794,91.177-47.188,97.886-98.045h186.606c5.637,0,10.223,4.586,10.223,10.223s-4.586,10.223-10.223,10.223
		H275.487v30h166.29c5.637,0,10.223,4.586,10.223,10.223s-4.586,10.223-10.223,10.223h-166.29v30h139.096
		c5.637,0,10.223,4.586,10.223,10.223S420.22,301.668,414.583,301.668z"/>
</g>
</svg>